<svg xmlns="http://www.w3.org/2000/svg" width="1600" height="1600" viewBox="0 0 1600 1600">
    <g fill="#fff">
        <path d="M926.313 1450.381a50.005 50.005 0 0 0-50.586 49.219l-726.172.8a50.005 50.005 0 0 0-50.195-50.195l1.37-725.586a50.005 50.005 0 1 0 100 0l-1.37 675.781 676.172-.8a50.005 50.005 0 0 0 50.781 50.781" opacity=".5"/>
        <path d="m504.938 99.6-400 400h995.117l.6 995.703 385.352-385.351 14.634-14.649-.586-995.703zm41.406 100h797.07l-200 200h-797.07zm853.711 56.641.6 797.656-200 200-.6-797.656z"/>
    </g>
</svg>
