<svg xmlns="http://www.w3.org/2000/svg" width="255" height="255" viewBox="0 0 255 255">
    <path fill="#d9aff5" d="m38 200 3 1L72 53h-4l-3-1-32 148zM87 38v3h112v-7H86zM162 216v3H49l1-2v-4l112-1zM211 54h3l-31 147-3-1-4-1 31-147z"/>
    <path fill="#e5e5e5" d="M214 29h-3l-3 2-2 3-1 4 1 3 2 3 3 2 3 1 4-1 3-2 2-3v-7l-2-3-3-2zM177 206h-4l-3 2-2 3v7l2 3 3 2 4 1 3-1 3-2 2-3 1-3-1-4-2-3-3-2zM34 206h-3l-3 2-2 3-1 4 1 3 2 3 3 2 3 1 4-1 3-2 2-3v-7l-2-3-3-2zM71 29l-3 1-3 2-2 3-1 3 1 4 2 3 6 2 4-1 3-1 2-3v-7l-2-3-3-2z"/>
</svg>
