<svg xmlns="http://www.w3.org/2000/svg" width="1600" height="1200" viewBox="0 0 1600 1200">
    <g fill="#fff" opacity=".6">
        <path d="M549.618 99.061a50.005 50.005 0 0 0-49.219 50.781v400a50.005 50.005 0 1 0 100 0v-400a50.005 50.005 0 0 0-50.781-50.781m499.804 400.586a50.005 50.005 0 0 0-49.414 50.586v500a50.005 50.005 0 1 0 100 0v-500a50.005 50.005 0 0 0-50.586-50.586" opacity=".6"/>
        <path d="M549.999 99.747a50 50 0 0 0-35.352 14.453l-400 400a50 50 0 0 0-14.648 35.547v500a50.005 50.005 0 0 0 50 50l900 .6a50 50 0 0 0 35.547-14.649l400-400.39a50 50 0 0 0 14.453-35.561v-500a50.005 50.005 0 0 0-50-50zm20.898 100h758.79l-300.391 300.586-758.985-.391zm829.102 70.898v358.399l-370.703 371.289-829.297-.391v-400l850 .4a50 50 0 0 0 35.547-14.844z" opacity="1"/>
    </g>
</svg>
