<?xml version="1.0" encoding="UTF-8"?>
<svg xmlns="http://www.w3.org/2000/svg" width="255" height="255" viewBox="0 0 255 255">
  <polygon points="161,93 161,80 174,80 174,93" fill="#000000" opacity="0.5019607843137255"/>
  <polygon points="161,106 161,93 174,93 174,106" fill="#e5e5e5" opacity="0.5019607843137255"/>
  <polygon points="81,93 81,80 94,80 94,93" fill="#000000" opacity="0.5019607843137255"/>
  <polygon points="94,93 94,80 107,80 107,93" fill="#e5e5e5" opacity="0.5019607843137255"/>
  <polygon points="107,93 107,80 121,80 121,93" fill="#000000" opacity="0.5019607843137255"/>
  <polygon points="121,93 121,80 134,80 134,93" fill="#e5e5e5" opacity="0.5019607843137255"/>
  <polygon points="134,93 134,80 148,80 148,93" fill="#000000" opacity="0.5019607843137255"/>
  <polygon points="161,120 161,106 174,106 174,120" fill="#000000" opacity="0.5019607843137255"/>
  <polygon points="81,106 81,93 94,93 94,106" fill="#e5e5e5" opacity="0.5019607843137255"/>
  <polygon points="94,106 94,93 107,93 107,106" fill="#000000" opacity="0.5019607843137255"/>
  <polygon points="107,106 107,93 121,93 121,106" fill="#e5e5e5" opacity="0.5019607843137255"/>
  <polygon points="121,106 121,93 134,93 134,106" fill="#000000" opacity="0.5019607843137255"/>
  <polygon points="134,106 134,93 148,93 148,106" fill="#e5e5e5" opacity="0.5019607843137255"/>
  <polygon points="161,133 161,120 174,120 174,133" fill="#e5e5e5" opacity="0.5019607843137255"/>
  <polygon points="81,120 81,106 94,106 94,120" fill="#000000" opacity="0.5019607843137255"/>
  <polygon points="94,120 94,106 107,106 107,120" fill="#e5e5e5" opacity="0.5019607843137255"/>
  <polygon points="107,120 107,106 121,106 121,120" fill="#000000" opacity="0.5019607843137255"/>
  <polygon points="121,120 121,106 134,106 134,120" fill="#e5e5e5" opacity="0.5019607843137255"/>
  <polygon points="134,120 134,106 148,106 148,120" fill="#000000" opacity="0.5019607843137255"/>
  <polygon points="161,93 148,93 148,80 161,80" fill="#e5e5e5" opacity="0.5019607843137255"/>
  <polygon points="161,147 161,133 174,133 174,147" fill="#000000" opacity="0.5019607843137255"/>
  <polygon points="81,133 81,120 94,120 94,133" fill="#e5e5e5" opacity="0.5019607843137255"/>
  <polygon points="94,133 94,120 107,120 107,133" fill="#000000" opacity="0.5019607843137255"/>
  <polygon points="107,133 107,120 121,120 121,133" fill="#e5e5e5" opacity="0.5019607843137255"/>
  <polygon points="121,133 121,120 134,120 134,133" fill="#000000" opacity="0.5019607843137255"/>
  <polygon points="134,133 134,120 148,120 148,133" fill="#e5e5e5" opacity="0.5019607843137255"/>
  <polygon points="161,106 148,106 148,93 161,93" fill="#000000" opacity="0.5019607843137255"/>
  <polygon points="161,160 161,147 174,147 174,160" fill="#e5e5e5" opacity="0.5019607843137255"/>
  <polygon points="81,147 81,133 94,133 94,147" fill="#000000" opacity="0.5019607843137255"/>
  <polygon points="94,147 94,133 107,133 107,147" fill="#e5e5e5" opacity="0.5019607843137255"/>
  <polygon points="107,147 107,133 121,133 121,147" fill="#000000" opacity="0.5019607843137255"/>
  <polygon points="121,147 121,133 134,133 134,147" fill="#e5e5e5" opacity="0.5019607843137255"/>
  <polygon points="134,147 134,133 148,133 148,147" fill="#000000" opacity="0.5019607843137255"/>
  <polygon points="161,120 148,120 148,106 161,106" fill="#e5e5e5" opacity="0.5019607843137255"/>
  <polygon points="161,173 161,160 174,160 174,173" fill="#000000" opacity="0.5019607843137255"/>
  <polygon points="81,160 81,147 94,147 94,160" fill="#e5e5e5" opacity="0.5019607843137255"/>
  <polygon points="94,160 94,147 107,147 107,160" fill="#000000" opacity="0.5019607843137255"/>
  <polygon points="107,160 107,147 121,147 121,160" fill="#e5e5e5" opacity="0.5019607843137255"/>
  <polygon points="121,160 121,147 134,147 134,160" fill="#000000" opacity="0.5019607843137255"/>
  <polygon points="134,160 134,147 148,147 148,160" fill="#e5e5e5" opacity="0.5019607843137255"/>
  <polygon points="161,133 148,133 148,120 161,120" fill="#000000" opacity="0.5019607843137255"/>
  <polygon points="81,173 81,160 94,160 94,173" fill="#000000" opacity="0.5019607843137255"/>
  <polygon points="94,173 94,160 107,160 107,173" fill="#e5e5e5" opacity="0.5019607843137255"/>
  <polygon points="107,173 107,160 121,160 121,173" fill="#000000" opacity="0.5019607843137255"/>
  <polygon points="121,173 121,160 134,160 134,173" fill="#e5e5e5" opacity="0.5019607843137255"/>
  <polygon points="134,173 134,160 148,160 148,173" fill="#000000" opacity="0.5019607843137255"/>
  <polygon points="161,147 148,147 148,133 161,133" fill="#e5e5e5" opacity="0.5019607843137255"/>
  <polygon points="161,160 148,160 148,147 161,147" fill="#000000" opacity="0.5019607843137255"/>
  <polygon points="161,173 148,173 148,160 161,160" fill="#e5e5e5" opacity="0.5019607843137255"/>
  <polygon points="196,131 205,131 205,147 234,127 205,106 205,122 196,122" fill="#d9aff5"/>
  <polygon points="123,195 123,204 107,204 127,233 148,204 132,204 132,195" fill="#d9aff5"/>
  <polygon points="59,122 50,122 50,106 21,127 50,147 50,131 59,131" fill="#d9aff5"/>
  <polygon points="132,58 132,49 148,49 128,20 107,49 123,49 123,58" fill="#d9aff5"/>
</svg>