<?xml version="1.0" encoding="UTF-8"?>
<svg xmlns="http://www.w3.org/2000/svg" width="255" height="255" viewBox="0 0 255 255">
  <polygon points="77,177 193,177 186,185 178,192 169,198 159,203 149,206 138,209 127,209 117,209 106,206 96,203 86,198 77,192 69,185 62,177 56,168 51,158 48,148 45,137 45,126 45,116 48,105 51,95 56,85 62,76 69,68 77,61" fill="#9b9b9b"/>
  <polygon points="93,161 93,52 102,49 113,47 124,46 135,47 145,49 155,52 165,57 174,63 182,70 189,78 195,87 200,97 204,107 206,118 207,129 206,139 204,150 200,161" fill="#ffffff"/>
  <polygon points="227,28 227,168 86,168 86,28 94,36 94,160 219,160 219,36" fill="#ffffff"/>
  <polygon points="94,36 86,28 227,28 219,36" fill="#ffffff"/>
</svg>