<?xml version="1.0" encoding="UTF-8"?>
<svg xmlns="http://www.w3.org/2000/svg" width="255" height="255" viewBox="0 0 255 255">
  <polygon points="71,153 68,158 65,162 63,167 61,172 59,177 57,182 56,188 55,193 54,199 53,204 52,210 57,210 62,211 62,206 63,200 64,195 65,190 66,185 68,180 70,176 71,171 74,167 76,163 79,159 83,155 80,152 77,147" fill="#e5e5e5"/>
  <polygon points="178,76 172,84 165,92 157,100 149,107 141,113 134,118 127,122 122,125 117,128 113,129 110,131 112,134 113,139 117,138 120,137 125,135 130,132 137,128 144,122 153,116 162,109 170,100 178,91 185,82 192,74 188,71 184,68" fill="#75ffaf"/>
  <polygon points="82,85 92,75 103,86 110,51 75,57 86,68 75,79" fill="#75ffaf"/>
  <polygon points="205,47 201,45 196,45 191,47 188,50 186,54 186,59 187,64 191,67 195,69 200,69 204,67 208,64 210,60 210,55 208,50" fill="#75ffaf"/>
  <polygon points="62,232 64,226 60,220 57,219 54,219 51,220 49,222 47,225 47,229 48,232 51,234 54,235 57,235 60,234" fill="#e5e5e5"/>
  <polygon points="103,146 104,143 104,139 103,136 101,134 98,133 94,133 91,134 89,136 88,139 88,142 89,145 91,148 94,149 97,149 100,148" fill="#e5e5e5"/>
</svg>